<?xml version="1.0" encoding="UTF-8" standalone="no"?>
<!DOCTYPE svg PUBLIC "-//W3C//DTD SVG 1.1//EN" "http://www.w3.org/Graphics/SVG/1.1/DTD/svg11.dtd">
<svg xmlns="http://www.w3.org/2000/svg" version="1.1" viewBox="0.00 0.00 500.00 200.00">
<rect fill="#072b43" x="129.98" y="41.23" width="25.74" height="120.42" rx="2.53"/>
<path fill="#072b43" d="
  M 458.78 67.86
  L 484.17 45.98
  A 2.02 2.02 0.0 0 1 487.09 46.29
  L 496.63 58.71
  A 2.02 2.02 0.0 0 1 496.06 61.68
  L 466.89 78.99
  A 2.02 2.02 0.0 0 1 464.23 78.44
  L 458.46 70.59
  A 2.02 2.02 0.0 0 1 458.78 67.86
  Z"
/>
<path fill="#072b43" d="
  M 35.84 161.68
  L 11.10 161.55
  A 1.59 1.59 0.0 0 1 9.64 159.37
  L 54.87 47.34
  A 1.59 1.59 0.0 0 1 56.34 46.35
  L 78.25 46.35
  A 1.59 1.59 0.0 0 1 79.72 47.35
  L 124.98 159.51
  A 1.59 1.59 0.0 0 1 123.50 161.69
  L 98.37 161.51
  A 1.59 1.59 0.0 0 1 96.88 160.44
  L 89.80 140.01
  A 1.59 1.59 0.0 0 0 88.30 138.94
  L 46.48 138.94
  A 1.59 1.59 0.0 0 0 44.99 139.98
  L 37.34 160.65
  A 1.59 1.59 0.0 0 1 35.84 161.68
  Z
  M 55.04 114.06
  A 1.41 1.41 0.0 0 0 56.36 115.98
  L 78.42 115.94
  A 1.41 1.41 0.0 0 0 79.73 114.02
  L 68.65 85.68
  A 1.41 1.41 0.0 0 0 66.02 85.68
  L 55.04 114.06
  Z"
/>
<path fill="#072b43" d="
  M 351.27 78.79
  Q 351.17 79.45 351.28 80.13
  Q 352.50 87.80 353.53 95.23
  A 1.64 1.60 -36.5 0 1 353.38 96.17
  C 352.37 98.24 351.12 99.89 351.38 102.41
  Q 352.19 110.31 356.14 116.79
  A 0.76 0.75 68.3 0 1 355.66 117.92
  L 349.56 119.25
  A 1.26 1.26 0.0 0 1 348.50 119.00
  Q 342.97 114.49 343.87 108.19
  Q 345.20 99.01 347.28 88.88
  C 349.16 79.70 344.38 77.35 336.93 73.09
  Q 327.74 67.84 319.79 63.92
  Q 318.69 63.39 318.31 64.55
  L 318.22 64.83
  Q 317.61 66.70 319.32 67.69
  L 337.75 78.34
  A 1.05 1.04 7.8 0 1 338.25 78.99
  Q 338.43 79.72 337.94 80.15
  Q 337.53 80.50 336.99 80.61
  Q 326.72 82.56 317.86 84.25
  Q 316.71 84.47 315.67 83.93
  Q 296.94 74.06 278.18 64.25
  C 277.13 63.71 276.44 62.86 276.73 61.59
  A 2.06 2.05 1.4 0 1 278.40 60.01
  Q 299.11 56.57 318.15 53.42
  C 319.95 53.12 322.04 53.44 323.66 54.30
  Q 343.06 64.63 360.60 73.94
  A 1.39 1.39 0.0 0 1 361.34 75.17
  C 361.32 78.06 354.12 78.18 352.39 77.96
  A 1.00 0.99 8.3 0 0 351.27 78.79
  Z"
/>
<path fill="#072b43" d="
  M 311.58 86.81
  C 313.24 87.70 314.63 88.70 316.64 88.41
  Q 328.88 86.64 341.97 84.78
  C 343.85 84.51 344.77 86.44 343.68 87.86
  Q 339.79 92.91 339.95 99.14
  A 1.60 1.59 73.5 0 1 339.20 100.53
  Q 336.73 102.08 334.03 102.50
  C 318.36 104.91 298.18 102.88 288.24 89.37
  A 2.63 2.60 30.7 0 1 287.76 87.53
  L 288.93 77.46
  A 1.71 1.71 0.0 0 1 291.42 76.14
  Q 301.29 81.27 311.58 86.81
  Z"
/>
<path fill="#072b43" d="
  M 412.75 154.50
  A 0.71 0.71 0.0 0 0 411.57 153.98
  C 398.38 165.78 380.23 167.65 366.62 155.64
  Q 353.89 144.41 352.93 125.70
  A 1.28 1.26 70.7 0 1 353.44 124.62
  L 358.64 120.76
  A 1.14 1.13 -29.5 0 0 359.02 119.41
  L 356.09 112.26
  A 1.94 1.93 45.8 0 1 356.11 110.75
  C 363.24 94.48 376.35 86.33 394.25 88.73
  C 399.88 89.48 405.03 92.35 409.86 95.12
  A 1.21 1.20 26.1 0 0 411.57 94.54
  L 413.03 90.97
  A 1.62 1.62 0.0 0 1 414.54 89.98
  L 435.76 90.20
  A 1.06 1.05 -89.7 0 1 436.80 91.26
  L 436.80 160.29
  A 1.32 1.32 0.0 0 1 435.49 161.61
  Q 425.87 161.72 414.43 161.61
  C 411.01 161.58 412.79 156.38 412.75 154.50
  Z
  M 412.56 126.03
  A 16.63 16.63 0.0 0 0 395.93 109.40
  A 16.63 16.63 0.0 0 0 379.30 126.03
  A 16.63 16.63 0.0 0 0 395.93 142.66
  A 16.63 16.63 0.0 0 0 412.56 126.03
  Z"
/>
<path fill="#072b43" d="
  M 202.98 142.47
  C 211.14 145.95 220.96 141.52 222.05 132.48
  Q 222.37 129.90 222.40 127.49
  Q 222.65 108.73 222.53 91.72
  Q 222.51 90.21 224.02 90.21
  L 246.75 90.21
  A 0.90 0.89 88.7 0 1 247.64 91.07
  Q 248.43 108.12 248.33 124.48
  C 248.23 141.76 244.62 156.39 225.93 161.56
  Q 214.10 164.84 200.32 163.44
  C 188.80 162.26 178.04 157.00 173.03 146.38
  Q 170.11 140.20 169.92 126.71
  Q 169.63 106.93 171.13 91.24
  A 1.30 1.29 2.9 0 1 172.43 90.07
  L 192.60 90.27
  A 2.20 2.20 0.0 0 1 194.78 92.43
  Q 195.08 108.88 195.08 126.05
  C 195.08 132.89 196.00 139.49 202.98 142.47
  Z"
/>
<path fill="#072b43" d="
  M 303.41 200.00
  L 292.49 200.00
  C 278.44 198.01 267.54 193.33 260.57 180.42
  A 1.56 1.56 0.0 0 1 261.26 178.28
  L 278.19 170.02
  Q 279.58 169.34 280.65 170.46
  Q 287.79 177.95 298.33 178.11
  C 309.80 178.30 317.56 170.83 316.31 158.93
  A 0.63 0.63 0.0 0 0 315.43 158.42
  C 309.04 161.22 303.10 163.62 295.56 163.66
  Q 273.05 163.78 262.27 144.88
  Q 258.75 138.72 257.75 130.71
  C 255.53 113.06 265.11 97.87 281.20 90.43
  Q 283.26 89.48 284.70 91.21
  C 297.47 106.57 320.21 108.22 338.92 104.03
  A 1.93 1.93 0.0 0 1 341.27 105.90
  Q 341.40 135.22 341.16 165.36
  Q 341.07 175.18 336.27 182.91
  C 329.06 194.48 316.21 198.49 303.41 200.00
  Z
  M 302.9293 142.6479
  A 16.75 16.39 82.8 0 0 317.0908 123.9758
  A 16.75 16.39 82.8 0 0 298.7307 109.4121
  A 16.75 16.39 82.8 0 0 284.5692 128.0842
  A 16.75 16.39 82.8 0 0 302.9293 142.6479
  Z"
/>
<rect fill="#072b43" x="452.98" y="90.05" width="24.78" height="71.60" rx="1.96"/>
</svg>
