<?xml version="1.0" encoding="UTF-8" standalone="no"?>
<!DOCTYPE svg PUBLIC "-//W3C//DTD SVG 1.1//EN" "http://www.w3.org/Graphics/SVG/1.1/DTD/svg11.dtd">
<svg xmlns="http://www.w3.org/2000/svg" version="1.1" viewBox="0.00 0.00 331.00 331.00">
<path fill="#ffffff" d="
  M 83.73 96.54
  L 79.94 96.58
  A 0.28 0.28 0.0 0 1 79.68 96.21
  L 85.09 80.23
  A 0.28 0.28 0.0 0 1 85.35 80.04
  L 134.24 80.03
  A 0.28 0.28 0.0 0 0 134.52 79.78
  L 134.60 79.07
  A 0.28 0.28 0.0 0 0 134.32 78.76
  L 130.04 78.75
  A 0.28 0.28 0.0 0 1 129.76 78.47
  L 129.77 65.65
  A 0.28 0.28 0.0 0 1 129.89 65.42
  L 165.36 41.53
  A 0.28 0.28 0.0 0 1 165.68 41.53
  L 201.13 65.41
  A 0.28 0.28 0.0 0 1 201.25 65.64
  L 201.25 78.46
  A 0.28 0.28 0.0 0 1 200.97 78.74
  L 196.71 78.78
  A 0.28 0.28 0.0 0 0 196.43 79.07
  L 196.45 79.76
  A 0.28 0.28 0.0 0 0 196.73 80.03
  L 245.73 80.04
  A 0.28 0.28 0.0 0 1 245.99 80.23
  L 251.33 96.19
  A 0.28 0.28 0.0 0 1 251.06 96.56
  L 247.28 96.58
  A 0.28 0.28 0.0 0 0 247.00 96.86
  L 247.00 169.42
  A 0.28 0.28 0.0 0 0 247.28 169.70
  L 250.60 169.65
  A 0.28 0.28 0.0 0 1 250.88 169.93
  L 250.86 178.58
  A 0.28 0.28 0.0 0 1 250.58 178.86
  L 80.51 178.85
  A 0.28 0.28 0.0 0 1 80.23 178.57
  L 80.17 169.94
  A 0.28 0.28 0.0 0 1 80.45 169.66
  L 83.73 169.70
  A 0.28 0.28 0.0 0 0 84.01 169.42
  L 84.01 96.82
  A 0.28 0.28 0.0 0 0 83.73 96.54
  Z
  M 198.25 67.26
  A 0.33 0.33 0.0 0 0 198.10 66.98
  L 165.69 45.13
  A 0.33 0.33 0.0 0 0 165.33 45.13
  L 132.91 66.99
  A 0.33 0.33 0.0 0 0 132.76 67.27
  L 132.74 75.41
  A 0.33 0.33 0.0 0 0 133.07 75.74
  L 197.94 75.74
  A 0.33 0.33 0.0 0 0 198.27 75.41
  L 198.25 67.26
  Z
  M 193.60 79.24
  A 0.33 0.33 0.0 0 0 193.27 78.91
  L 137.83 78.91
  A 0.33 0.33 0.0 0 0 137.50 79.24
  L 137.50 83.90
  A 0.33 0.33 0.0 0 0 137.83 84.23
  L 193.27 84.23
  A 0.33 0.33 0.0 0 0 193.60 83.90
  L 193.60 79.24
  Z
  M 119.96 84.58
  A 0.28 0.28 0.0 0 1 120.24 84.30
  L 134.36 84.29
  A 0.28 0.28 0.0 0 0 134.64 83.99
  L 134.59 83.27
  A 0.28 0.28 0.0 0 0 134.31 83.01
  L 87.45 83.00
  A 0.28 0.28 0.0 0 0 87.19 83.19
  L 83.88 93.14
  A 0.28 0.28 0.0 0 0 84.15 93.51
  L 119.67 93.51
  A 0.28 0.28 0.0 0 0 119.95 93.23
  L 119.96 84.58
  Z
  M 210.82 84.29
  A 0.29 0.29 0.0 0 1 211.11 84.58
  L 211.14 93.22
  A 0.29 0.29 0.0 0 0 211.43 93.51
  L 246.89 93.50
  A 0.29 0.29 0.0 0 0 247.16 93.12
  L 243.83 83.20
  A 0.29 0.29 0.0 0 0 243.55 83.00
  L 196.74 83.01
  A 0.29 0.29 0.0 0 0 196.46 83.28
  L 196.42 83.98
  A 0.29 0.29 0.0 0 0 196.71 84.29
  L 210.82 84.29
  Z
  M 208.21 87.61
  A 0.27 0.27 0.0 0 0 207.94 87.34
  L 123.14 87.34
  A 0.27 0.27 0.0 0 0 122.87 87.61
  L 122.87 98.23
  A 0.27 0.27 0.0 0 0 123.14 98.50
  L 207.94 98.50
  A 0.27 0.27 0.0 0 0 208.21 98.23
  L 208.21 87.61
  Z
  M 123.61 106.29
  A 0.34 0.34 0.0 0 1 123.25 105.94
  L 123.28 101.88
  A 0.34 0.34 0.0 0 0 122.94 101.54
  L 120.30 101.54
  A 0.34 0.34 0.0 0 1 119.96 101.20
  L 119.96 97.06
  A 0.34 0.34 0.0 0 0 119.62 96.72
  L 87.46 96.72
  A 0.34 0.34 0.0 0 0 87.12 97.06
  L 87.13 125.64
  A 0.34 0.34 0.0 0 0 87.47 125.98
  L 124.67 125.98
  A 0.34 0.34 0.0 0 0 125.01 125.64
  L 125.01 106.58
  A 0.34 0.34 0.0 0 0 124.66 106.24
  L 123.61 106.29
  Z
  M 210.55 101.54
  L 208.23 101.53
  Q 207.75 101.53 207.75 102.01
  L 207.75 105.75
  Q 207.75 106.55 206.99 106.31
  Q 206.79 106.25 206.59 106.26
  Q 206.00 106.31 206.00 106.90
  L 206.00 125.49
  Q 206.00 125.98 206.49 125.98
  L 243.24 125.98
  Q 243.96 125.98 243.96 125.26
  L 243.96 97.21
  A 0.50 0.49 -0.0 0 0 243.46 96.72
  L 211.44 96.72
  A 0.34 0.33 -0.8 0 0 211.10 97.06
  L 211.14 100.95
  Q 211.15 101.54 210.55 101.54
  Z
  M 140.54 106.30
  L 139.98 106.29
  Q 139.50 106.29 139.50 106.77
  L 139.50 157.99
  Q 139.50 158.49 139.99 158.61
  L 140.65 158.77
  Q 141.15 158.88 141.14 159.40
  L 141.10 162.73
  Q 141.10 163.37 141.73 163.37
  L 150.72 163.38
  Q 151.19 163.39 151.19 162.92
  Q 151.28 149.37 151.14 135.24
  C 151.08 129.79 154.10 125.75 159.90 125.92
  Q 165.76 126.09 171.41 125.92
  C 175.17 125.81 178.66 128.20 179.59 131.83
  Q 179.87 132.93 179.88 139.69
  Q 179.91 151.45 179.81 162.30
  Q 179.80 163.37 180.87 163.37
  L 189.17 163.38
  Q 189.97 163.38 189.97 162.58
  L 189.96 159.24
  Q 189.96 158.69 190.52 158.73
  Q 190.84 158.76 191.14 158.62
  Q 191.56 158.43 191.56 157.95
  L 191.50 106.97
  Q 191.50 106.43 190.96 106.38
  L 190.50 106.35
  Q 189.95 106.30 189.95 105.75
  L 189.97 102.13
  A 0.59 0.58 0.5 0 0 189.38 101.54
  L 141.78 101.54
  A 0.68 0.68 0.0 0 0 141.10 102.22
  L 141.14 105.71
  Q 141.14 106.30 140.54 106.30
  Z
  M 138.23 102.17
  A 0.48 0.48 0.0 0 0 137.75 101.69
  L 126.81 101.69
  A 0.48 0.48 0.0 0 0 126.33 102.17
  L 126.33 102.79
  A 0.48 0.48 0.0 0 0 126.81 103.27
  L 137.75 103.27
  A 0.48 0.48 0.0 0 0 138.23 102.79
  L 138.23 102.17
  Z
  M 204.72 102.13
  A 0.43 0.43 0.0 0 0 204.29 101.70
  L 193.29 101.70
  A 0.43 0.43 0.0 0 0 192.86 102.13
  L 192.86 102.85
  A 0.43 0.43 0.0 0 0 193.29 103.28
  L 204.29 103.28
  A 0.43 0.43 0.0 0 0 204.72 102.85
  L 204.72 102.13
  Z
  M 136.46 106.71
  A 0.32 0.32 0.0 0 0 136.14 106.39
  L 128.32 106.39
  A 0.32 0.32 0.0 0 0 128.00 106.71
  L 128.00 158.27
  A 0.32 0.32 0.0 0 0 128.32 158.59
  L 136.14 158.59
  A 0.32 0.32 0.0 0 0 136.46 158.27
  L 136.46 106.71
  Z
  M 203.01 106.72
  A 0.30 0.30 0.0 0 0 202.71 106.42
  L 194.93 106.42
  A 0.30 0.30 0.0 0 0 194.63 106.72
  L 194.63 158.28
  A 0.30 0.30 0.0 0 0 194.93 158.58
  L 202.71 158.58
  A 0.30 0.30 0.0 0 0 203.01 158.28
  L 203.01 106.72
  Z
  M 125.02 129.41
  A 0.54 0.54 0.0 0 0 124.48 128.87
  L 87.72 128.87
  A 0.54 0.54 0.0 0 0 87.18 129.41
  L 87.18 130.49
  A 0.54 0.54 0.0 0 0 87.72 131.03
  L 124.48 131.03
  A 0.54 0.54 0.0 0 0 125.02 130.49
  L 125.02 129.41
  Z
  M 154.66 163.29
  L 176.36 163.29
  A 0.66 0.66 0.0 0 0 177.02 162.63
  L 177.02 134.64
  A 5.79 5.47 -90.0 0 0 171.55 128.85
  L 159.47 128.85
  A 5.79 5.47 90.0 0 0 154.00 134.64
  L 154.00 162.63
  A 0.66 0.66 0.0 0 0 154.66 163.29
  Z
  M 243.90 129.42
  A 0.55 0.55 0.0 0 0 243.35 128.87
  L 206.53 128.87
  A 0.55 0.55 0.0 0 0 205.98 129.42
  L 205.98 130.48
  A 0.55 0.55 0.0 0 0 206.53 131.03
  L 243.35 131.03
  A 0.55 0.55 0.0 0 0 243.90 130.48
  L 243.90 129.42
  Z
  M 123.25 159.07
  A 0.34 0.34 0.0 0 1 123.59 158.73
  L 124.67 158.74
  A 0.34 0.34 0.0 0 0 125.01 158.40
  L 125.01 134.32
  A 0.34 0.34 0.0 0 0 124.67 133.98
  L 87.47 133.98
  A 0.34 0.34 0.0 0 0 87.13 134.32
  L 87.12 169.18
  A 0.34 0.34 0.0 0 0 87.46 169.52
  L 117.68 169.52
  A 0.34 0.34 0.0 0 0 118.02 169.18
  L 118.01 163.71
  A 0.34 0.34 0.0 0 1 118.35 163.37
  L 122.94 163.41
  A 0.34 0.34 0.0 0 0 123.29 163.06
  L 123.25 159.07
  Z
  M 213.00 163.94
  L 213.00 169.01
  Q 213.00 169.52 213.51 169.52
  L 243.47 169.52
  Q 243.96 169.52 243.96 169.03
  L 243.96 134.72
  Q 243.96 133.98 243.22 133.98
  L 206.51 133.98
  Q 206.00 133.98 206.00 134.49
  L 206.00 158.10
  Q 206.00 158.65 206.54 158.76
  Q 206.79 158.81 207.04 158.73
  Q 207.76 158.49 207.76 159.25
  L 207.75 162.82
  Q 207.74 163.39 208.32 163.39
  L 212.43 163.37
  Q 213.00 163.37 213.00 163.94
  Z
  M 138.23 162.22
  A 0.48 0.48 0.0 0 0 137.75 161.74
  L 126.71 161.74
  A 0.48 0.48 0.0 0 0 126.23 162.22
  L 126.23 162.80
  A 0.48 0.48 0.0 0 0 126.71 163.28
  L 137.75 163.28
  A 0.48 0.48 0.0 0 0 138.23 162.80
  L 138.23 162.22
  Z
  M 204.73 162.19
  A 0.44 0.44 0.0 0 0 204.29 161.75
  L 193.27 161.75
  A 0.44 0.44 0.0 0 0 192.83 162.19
  L 192.83 162.85
  A 0.44 0.44 0.0 0 0 193.27 163.29
  L 204.29 163.29
  A 0.44 0.44 0.0 0 0 204.73 162.85
  L 204.73 162.19
  Z
  M 209.94 166.68
  A 0.27 0.27 0.0 0 0 209.67 166.41
  L 121.41 166.41
  A 0.27 0.27 0.0 0 0 121.14 166.68
  L 121.14 169.22
  A 0.27 0.27 0.0 0 0 121.41 169.49
  L 209.67 169.49
  A 0.27 0.27 0.0 0 0 209.94 169.22
  L 209.94 166.68
  Z
  M 247.95 172.98
  A 0.27 0.27 0.0 0 0 247.68 172.71
  L 83.38 172.71
  A 0.27 0.27 0.0 0 0 83.11 172.98
  L 83.11 175.58
  A 0.27 0.27 0.0 0 0 83.38 175.85
  L 247.68 175.85
  A 0.27 0.27 0.0 0 0 247.95 175.58
  L 247.95 172.98
  Z"
/>
<path fill="#ffffff" d="
  M 140.51 92.68
  L 140.46 95.14
  Q 140.45 95.41 140.17 95.42
  L 139.85 95.42
  A 0.52 0.51 86.9 0 1 139.34 94.96
  Q 139.13 92.82 139.27 90.63
  Q 139.43 88.25 140.86 90.15
  Q 141.59 91.11 142.37 91.99
  Q 143.58 93.34 143.28 91.55
  Q 143.11 90.49 143.42 89.58
  A 0.61 0.61 0.0 0 1 144.60 89.78
  L 144.62 95.01
  A 0.55 0.55 0.0 0 1 143.65 95.37
  L 141.15 92.45
  Q 140.54 91.74 140.51 92.68
  Z"
/>
<path fill="#ffffff" d="
  M 155.14 92.96
  L 156.77 89.42
  Q 156.82 89.30 156.95 89.30
  L 157.50 89.30
  Q 158.03 89.30 157.82 89.78
  L 155.60 95.02
  A 0.91 0.91 0.0 0 1 153.93 95.02
  L 151.69 89.73
  Q 151.45 89.16 152.05 89.30
  L 152.72 89.46
  Q 152.97 89.52 153.08 89.76
  L 154.47 92.95
  Q 154.80 93.71 155.14 92.96
  Z"
/>
<path fill="#ffffff" d="
  M 162.03 94.24
  L 164.58 94.31
  Q 164.84 94.32 164.88 94.57
  L 164.94 94.92
  A 0.36 0.36 0.0 0 1 164.58 95.34
  L 160.86 95.34
  Q 160.27 95.33 160.27 94.74
  L 160.26 90.24
  Q 160.26 89.49 161.01 89.48
  L 164.35 89.43
  A 0.35 0.35 0.0 0 1 164.69 89.88
  L 164.57 90.28
  A 0.37 0.37 0.0 0 1 164.15 90.54
  Q 162.98 90.35 161.83 90.58
  Q 161.46 90.66 161.51 91.04
  L 161.54 91.32
  Q 161.62 91.91 162.21 91.90
  Q 163.23 91.90 164.14 92.07
  Q 164.78 92.19 164.25 92.58
  Q 163.53 93.10 162.49 92.84
  A 0.70 0.70 0.0 0 0 161.67 93.26
  L 161.56 93.53
  Q 161.27 94.22 162.03 94.24
  Z"
/>
<path fill="#ffffff" d="
  M 171.91 93.76
  L 172.47 94.78
  Q 172.87 95.52 172.04 95.38
  Q 171.12 95.23 170.79 94.31
  A 0.91 0.91 0.0 0 0 169.05 94.38
  Q 168.90 94.91 168.55 95.31
  A 0.47 0.47 0.0 0 1 167.73 95.00
  L 167.72 89.97
  Q 167.72 89.59 168.09 89.52
  C 170.13 89.16 173.77 89.46 172.53 92.72
  A 0.58 0.56 -3.3 0 1 172.24 93.03
  Q 172.01 93.14 171.90 93.35
  A 0.45 0.44 -47.1 0 0 171.91 93.76
  Z
  M 169.89 90.41
  A 0.75 0.75 0.0 0 0 169.08 90.93
  Q 168.90 91.51 168.99 92.17
  Q 169.07 92.69 169.59 92.76
  Q 170.57 92.89 171.22 92.24
  A 0.84 0.83 48.3 0 0 171.28 91.14
  Q 170.81 90.52 169.89 90.41
  Z"
/>
<path fill="#ffffff" d="
  M 176.84 91.45
  Q 177.75 91.98 178.84 92.16
  A 1.51 1.50 -14.2 0 1 179.82 92.74
  Q 180.32 93.39 179.98 94.19
  C 179.30 95.84 176.83 95.67 175.59 94.95
  Q 175.22 94.74 175.29 94.32
  A 0.40 0.40 0.0 0 1 175.84 94.02
  Q 177.01 94.53 178.15 94.29
  Q 179.66 93.98 178.26 93.34
  Q 177.31 92.90 176.34 92.56
  A 1.48 1.48 0.0 0 1 176.08 89.88
  Q 177.76 88.91 179.64 89.77
  Q 179.89 89.88 179.78 90.13
  L 179.65 90.44
  Q 179.48 90.83 179.08 90.68
  Q 177.98 90.25 176.91 90.65
  A 0.45 0.44 -40.1 0 0 176.84 91.45
  Z"
/>
<path fill="#ffffff" d="
  M 187.96 90.53
  L 187.01 90.41
  Q 186.52 90.35 186.59 89.86
  Q 186.61 89.71 186.72 89.62
  Q 186.83 89.54 186.96 89.53
  Q 189.31 89.44 191.18 89.41
  Q 192.15 89.40 191.62 90.22
  Q 191.23 90.82 190.59 90.52
  Q 189.83 90.16 189.84 91.00
  L 189.91 94.81
  A 0.59 0.58 -1.5 0 1 189.34 95.40
  L 188.93 95.42
  A 0.36 0.36 0.0 0 1 188.55 95.06
  L 188.57 91.22
  Q 188.57 90.60 187.96 90.53
  Z"
/>
<path fill="#ffffff" d="
  M 195.63 90.77
  Q 196.41 92.79 197.21 90.78
  Q 197.60 89.78 198.63 89.37
  Q 199.44 89.06 199.05 89.83
  C 198.11 91.72 196.98 92.66 196.94 94.95
  A 0.48 0.48 0.0 0 1 196.45 95.42
  L 196.07 95.42
  Q 195.71 95.41 195.75 95.05
  Q 195.96 92.92 193.86 90.16
  Q 193.06 89.11 194.33 89.46
  Q 195.21 89.70 195.63 90.77
  Z"
/>
<path fill="#ffffff" d="
  M 132.14 93.51
  Q 132.14 94.13 132.76 94.20
  L 133.54 94.29
  Q 134.76 94.44 134.77 93.21
  L 134.78 89.74
  Q 134.78 89.50 135.01 89.49
  L 135.71 89.45
  Q 136.07 89.43 136.10 89.79
  C 136.26 92.23 136.62 95.81 132.88 95.46
  A 2.34 2.34 0.0 0 1 130.76 93.13
  L 130.77 89.84
  Q 130.77 89.44 131.17 89.45
  L 131.74 89.47
  Q 132.12 89.48 132.12 89.86
  L 132.14 93.51
  Z"
/>
<rect fill="#ffffff" x="-0.68" y="-2.96" transform="translate(148.44,92.41) rotate(0.2)" width="1.36" height="5.92" rx="0.44"/>
<rect fill="#ffffff" x="-0.68" y="-2.95" transform="translate(183.44,92.41) rotate(0.2)" width="1.36" height="5.90" rx="0.44"/>
<path fill="#ffffff" d="
  M 104.00 118.93
  A 0.34 0.34 0.0 0 1 103.66 119.27
  L 95.60 119.27
  A 0.34 0.34 0.0 0 1 95.26 118.93
  L 95.26 103.45
  A 0.34 0.34 0.0 0 1 95.60 103.11
  L 103.66 103.11
  A 0.34 0.34 0.0 0 1 104.00 103.45
  L 104.00 118.93
  Z
  M 100.9682 106.4824
  A 0.46 0.46 0.0 0 0 100.5090 106.0216
  L 98.7090 106.0184
  A 0.46 0.46 0.0 0 0 98.2482 106.4776
  L 98.2318 115.8976
  A 0.46 0.46 0.0 0 0 98.6910 116.3584
  L 100.4910 116.3616
  A 0.46 0.46 0.0 0 0 100.9518 115.9024
  L 100.9682 106.4824
  Z"
/>
<path fill="#ffffff" d="
  M 116.75 118.97
  A 0.29 0.29 0.0 0 1 116.46 119.26
  L 108.50 119.26
  A 0.29 0.29 0.0 0 1 108.21 118.97
  L 108.21 103.41
  A 0.29 0.29 0.0 0 1 108.50 103.12
  L 116.46 103.12
  A 0.29 0.29 0.0 0 1 116.75 103.41
  L 116.75 118.97
  Z
  M 113.78 106.46
  A 0.42 0.42 0.0 0 0 113.36 106.04
  L 111.54 106.04
  A 0.42 0.42 0.0 0 0 111.12 106.46
  L 111.12 115.94
  A 0.42 0.42 0.0 0 0 111.54 116.36
  L 113.36 116.36
  A 0.42 0.42 0.0 0 0 113.78 115.94
  L 113.78 106.46
  Z"
/>
<path fill="#ffffff" d="
  M 222.88 118.92
  A 0.35 0.35 0.0 0 1 222.53 119.27
  L 214.61 119.27
  A 0.35 0.35 0.0 0 1 214.26 118.92
  L 214.26 103.46
  A 0.35 0.35 0.0 0 1 214.61 103.11
  L 222.53 103.11
  A 0.35 0.35 0.0 0 1 222.88 103.46
  L 222.88 118.92
  Z
  M 219.9518 106.4976
  A 0.48 0.48 0.0 0 0 219.4710 106.0185
  L 217.7110 106.0215
  A 0.48 0.48 0.0 0 0 217.2318 106.5024
  L 217.2482 115.8824
  A 0.48 0.48 0.0 0 0 217.7290 116.3615
  L 219.4890 116.3585
  A 0.48 0.48 0.0 0 0 219.9682 115.8776
  L 219.9518 106.4976
  Z"
/>
<path fill="#ffffff" d="
  M 235.75 118.99
  A 0.28 0.28 0.0 0 1 235.47 119.27
  L 227.29 119.27
  A 0.28 0.28 0.0 0 1 227.01 118.99
  L 227.01 103.39
  A 0.28 0.28 0.0 0 1 227.29 103.11
  L 235.47 103.11
  A 0.28 0.28 0.0 0 1 235.75 103.39
  L 235.75 118.99
  Z
  M 232.7182 106.5223
  A 0.47 0.47 0.0 0 0 232.2490 106.0514
  L 230.6090 106.0486
  A 0.47 0.47 0.0 0 0 230.1382 106.5178
  L 230.1218 115.8777
  A 0.47 0.47 0.0 0 0 230.5910 116.3486
  L 232.2310 116.3514
  A 0.47 0.47 0.0 0 0 232.7018 115.8822
  L 232.7182 106.5223
  Z"
/>
<path fill="#ffffff" d="
  M 172.04 113.05
  A 6.53 6.53 0.0 0 1 165.51 119.58
  A 6.53 6.53 0.0 0 1 158.98 113.05
  A 6.53 6.53 0.0 0 1 165.51 106.52
  A 6.53 6.53 0.0 0 1 172.04 113.05
  Z
  M 169.06 113.06
  A 3.55 3.55 0.0 0 0 165.51 109.51
  A 3.55 3.55 0.0 0 0 161.96 113.06
  A 3.55 3.55 0.0 0 0 165.51 116.61
  A 3.55 3.55 0.0 0 0 169.06 113.06
  Z"
/>
<path fill="#ffffff" d="
  M 104.00 156.40
  A 0.36 0.36 0.0 0 1 103.64 156.76
  L 95.62 156.76
  A 0.36 0.36 0.0 0 1 95.26 156.40
  L 95.26 140.98
  A 0.36 0.36 0.0 0 1 95.62 140.62
  L 103.64 140.62
  A 0.36 0.36 0.0 0 1 104.00 140.98
  L 104.00 156.40
  Z
  M 100.96 143.98
  A 0.45 0.45 0.0 0 0 100.51 143.53
  L 98.69 143.53
  A 0.45 0.45 0.0 0 0 98.24 143.98
  L 98.24 153.40
  A 0.45 0.45 0.0 0 0 98.69 153.85
  L 100.51 153.85
  A 0.45 0.45 0.0 0 0 100.96 153.40
  L 100.96 143.98
  Z"
/>
<path fill="#ffffff" d="
  M 116.75 156.47
  A 0.28 0.28 0.0 0 1 116.47 156.75
  L 108.47 156.75
  A 0.28 0.28 0.0 0 1 108.19 156.47
  L 108.19 140.91
  A 0.28 0.28 0.0 0 1 108.47 140.63
  L 116.47 140.63
  A 0.28 0.28 0.0 0 1 116.75 140.91
  L 116.75 156.47
  Z
  M 113.7883 143.9423
  A 0.40 0.40 0.0 0 0 113.3890 143.5416
  L 111.5290 143.5384
  A 0.40 0.40 0.0 0 0 111.1283 143.9377
  L 111.1117 153.4577
  A 0.40 0.40 0.0 0 0 111.5110 153.8584
  L 113.3710 153.8616
  A 0.40 0.40 0.0 0 0 113.7717 153.4623
  L 113.7883 143.9423
  Z"
/>
<path fill="#ffffff" d="
  M 222.88 156.40
  A 0.35 0.35 0.0 0 1 222.53 156.75
  L 214.61 156.75
  A 0.35 0.35 0.0 0 1 214.26 156.40
  L 214.26 140.98
  A 0.35 0.35 0.0 0 1 214.61 140.63
  L 222.53 140.63
  A 0.35 0.35 0.0 0 1 222.88 140.98
  L 222.88 156.40
  Z
  M 219.97 143.97
  A 0.44 0.44 0.0 0 0 219.53 143.53
  L 217.69 143.53
  A 0.44 0.44 0.0 0 0 217.25 143.97
  L 217.25 153.41
  A 0.44 0.44 0.0 0 0 217.69 153.85
  L 219.53 153.85
  A 0.44 0.44 0.0 0 0 219.97 153.41
  L 219.97 143.97
  Z"
/>
<path fill="#ffffff" d="
  M 235.75 156.46
  A 0.30 0.30 0.0 0 1 235.45 156.76
  L 227.31 156.76
  A 0.30 0.30 0.0 0 1 227.01 156.46
  L 227.01 140.92
  A 0.30 0.30 0.0 0 1 227.31 140.62
  L 235.45 140.62
  A 0.30 0.30 0.0 0 1 235.75 140.92
  L 235.75 156.46
  Z
  M 232.72 143.99
  A 0.46 0.46 0.0 0 0 232.26 143.53
  L 230.58 143.53
  A 0.46 0.46 0.0 0 0 230.12 143.99
  L 230.12 153.39
  A 0.46 0.46 0.0 0 0 230.58 153.85
  L 232.26 153.85
  A 0.46 0.46 0.0 0 0 232.72 153.39
  L 232.72 143.99
  Z"
/>
<path fill="#ffffff" d="
  M 207.20 224.77
  Q 208.17 224.58 208.60 223.42
  A 1.39 1.38 -70.3 0 0 207.76 221.63
  Q 204.50 220.50 201.50 219.27
  C 194.38 216.35 195.71 207.10 202.66 205.09
  Q 208.99 203.27 214.99 207.41
  A 0.53 0.52 -57.3 0 1 215.14 208.12
  L 212.66 212.23
  A 0.44 0.44 0.0 0 1 212.06 212.37
  C 210.14 211.17 206.57 209.76 204.43 211.04
  A 1.47 1.47 0.0 0 0 204.70 213.69
  Q 207.92 214.82 210.83 216.09
  C 219.00 219.65 216.44 229.13 208.44 230.63
  Q 200.82 232.06 195.39 226.77
  Q 195.18 226.57 195.34 226.34
  L 198.39 221.91
  Q 198.48 221.77 198.60 221.88
  Q 202.61 225.68 207.20 224.77
  Z"
/>
<path fill="#ffffff" d="
  M 64.94 220.77
  C 65.01 226.07 72.79 226.10 72.90 220.82
  Q 73.09 212.41 72.98 205.18
  Q 72.98 204.89 73.27 204.88
  L 79.14 204.88
  A 0.35 0.35 0.0 0 1 79.49 205.23
  Q 79.54 213.15 79.47 220.34
  Q 79.40 228.23 73.04 230.26
  C 65.52 232.67 58.47 228.94 58.40 220.27
  Q 58.34 212.72 58.38 205.27
  Q 58.39 204.88 58.78 204.88
  L 64.47 204.87
  Q 64.87 204.87 64.87 205.28
  Q 64.82 212.01 64.94 220.77
  Z"
/>
<path fill="#ffffff" d="
  M 100.77 217.94
  L 100.74 205.22
  A 0.32 0.32 0.0 0 1 101.06 204.90
  L 106.84 204.87
  A 0.32 0.32 0.0 0 1 107.16 205.19
  L 107.17 230.18
  A 0.32 0.32 0.0 0 1 106.85 230.50
  L 102.41 230.49
  A 0.32 0.32 0.0 0 1 102.16 230.38
  L 91.18 217.40
  A 0.32 0.32 0.0 0 0 90.61 217.61
  L 90.63 230.17
  A 0.32 0.32 0.0 0 1 90.31 230.49
  L 84.57 230.48
  A 0.32 0.32 0.0 0 1 84.25 230.16
  L 84.25 205.20
  A 0.32 0.32 0.0 0 1 84.57 204.88
  L 88.76 204.89
  A 0.32 0.32 0.0 0 1 89.01 205.00
  L 100.20 218.15
  A 0.32 0.32 0.0 0 0 100.77 217.94
  Z"
/>
<rect fill="#ffffff" x="112.25" y="204.87" width="6.52" height="25.62" rx="0.34"/>
<path fill="#ffffff" d="
  M 134.80 220.25
  L 140.03 205.12
  A 0.33 0.33 0.0 0 1 140.34 204.90
  L 147.08 204.85
  A 0.33 0.33 0.0 0 1 147.39 205.31
  L 137.43 230.29
  A 0.33 0.33 0.0 0 1 137.13 230.50
  L 131.80 230.48
  A 0.33 0.33 0.0 0 1 131.50 230.27
  L 121.42 205.32
  A 0.33 0.33 0.0 0 1 121.73 204.87
  L 128.54 204.88
  A 0.33 0.33 0.0 0 1 128.85 205.10
  L 134.18 220.25
  A 0.33 0.33 0.0 0 0 134.80 220.25
  Z"
/>
<path fill="#ffffff" d="
  M 157.05 214.72
  L 167.41 214.71
  A 0.34 0.34 0.0 0 1 167.75 215.05
  L 167.76 220.29
  A 0.34 0.34 0.0 0 1 167.42 220.63
  L 157.02 220.62
  A 0.34 0.34 0.0 0 0 156.68 220.96
  L 156.71 224.17
  A 0.34 0.34 0.0 0 0 157.05 224.51
  L 168.30 224.50
  A 0.34 0.34 0.0 0 1 168.64 224.84
  L 168.62 230.16
  A 0.34 0.34 0.0 0 1 168.28 230.50
  L 150.54 230.50
  A 0.34 0.34 0.0 0 1 150.20 230.16
  L 150.20 205.21
  A 0.34 0.34 0.0 0 1 150.54 204.87
  L 168.34 204.88
  A 0.34 0.34 0.0 0 1 168.68 205.22
  L 168.68 210.53
  A 0.34 0.34 0.0 0 1 168.34 210.87
  L 157.03 210.88
  A 0.34 0.34 0.0 0 0 156.69 211.22
  L 156.71 214.38
  A 0.34 0.34 0.0 0 0 157.05 214.72
  Z"
/>
<path fill="#ffffff" d="
  M 188.66 220.87
  A 0.30 0.30 0.0 0 0 188.54 221.28
  L 193.81 230.23
  A 0.17 0.17 0.0 0 1 193.66 230.49
  L 186.76 230.50
  Q 186.55 230.50 186.46 230.31
  L 182.33 222.55
  Q 182.04 221.99 181.41 222.00
  L 180.12 222.00
  Q 179.50 222.01 179.50 222.63
  L 179.50 230.25
  Q 179.50 230.49 179.25 230.49
  L 173.26 230.49
  Q 173.03 230.49 173.03 230.26
  L 173.02 205.50
  Q 173.02 204.89 173.63 204.88
  Q 179.00 204.81 184.45 204.95
  C 193.61 205.19 196.41 216.74 188.66 220.87
  Z
  M 179.50 211.06
  L 179.50 216.08
  A 0.29 0.29 0.0 0 0 179.79 216.37
  L 183.60 216.36
  A 2.76 2.56 -0.1 0 0 186.36 213.79
  L 186.36 213.31
  A 2.76 2.56 -0.1 0 0 183.60 210.76
  L 179.79 210.77
  A 0.29 0.29 0.0 0 0 179.50 211.06
  Z"
/>
<rect fill="#ffffff" x="219.53" y="204.88" width="6.48" height="25.62" rx="0.35"/>
<path fill="#ffffff" d="
  M 235.79 211.13
  L 229.32 211.13
  A 0.32 0.32 0.0 0 1 229.00 210.81
  L 229.00 205.19
  A 0.32 0.32 0.0 0 1 229.32 204.87
  L 249.40 204.88
  A 0.32 0.32 0.0 0 1 249.72 205.20
  L 249.75 210.81
  A 0.32 0.32 0.0 0 1 249.43 211.13
  L 242.95 211.13
  A 0.32 0.32 0.0 0 0 242.63 211.45
  L 242.64 230.18
  A 0.32 0.32 0.0 0 1 242.32 230.50
  L 236.42 230.49
  A 0.32 0.32 0.0 0 1 236.10 230.17
  L 236.11 211.45
  A 0.32 0.32 0.0 0 0 235.79 211.13
  Z"
/>
<path fill="#ffffff" d="
  M 262.94 213.90
  L 267.11 205.02
  Q 267.17 204.88 267.32 204.88
  L 274.52 204.88
  A 0.12 0.12 0.0 0 1 274.62 205.06
  Q 270.76 212.57 266.75 219.90
  C 265.09 222.94 265.83 226.94 265.74 230.24
  A 0.26 0.26 0.0 0 1 265.48 230.49
  L 259.56 230.48
  Q 259.32 230.48 259.32 230.24
  Q 259.24 227.03 259.37 223.95
  Q 259.45 221.95 258.43 220.05
  Q 254.37 212.52 250.63 205.10
  A 0.15 0.15 0.0 0 1 250.76 204.88
  L 257.80 204.88
  Q 258.07 204.88 258.18 205.13
  L 262.18 213.89
  Q 262.56 214.72 262.94 213.90
  Z"
/>
<path fill="#ffffff" d="
  M 88.55 272.51
  L 99.80 272.50
  A 0.34 0.34 0.0 0 1 100.14 272.84
  L 100.12 278.16
  A 0.34 0.34 0.0 0 1 99.78 278.50
  L 82.03 278.50
  A 0.34 0.34 0.0 0 1 81.69 278.16
  L 81.71 253.21
  A 0.34 0.34 0.0 0 1 82.05 252.87
  L 99.84 252.88
  A 0.34 0.34 0.0 0 1 100.18 253.22
  L 100.18 258.54
  A 0.34 0.34 0.0 0 1 99.84 258.88
  L 88.49 258.87
  A 0.34 0.34 0.0 0 0 88.15 259.22
  L 88.23 262.37
  A 0.34 0.34 0.0 0 0 88.57 262.70
  L 98.92 262.71
  A 0.34 0.34 0.0 0 1 99.26 263.05
  L 99.26 268.29
  A 0.34 0.34 0.0 0 1 98.92 268.63
  L 88.51 268.63
  A 0.34 0.34 0.0 0 0 88.17 268.97
  L 88.21 272.17
  A 0.34 0.34 0.0 0 0 88.55 272.51
  Z"
/>
<path fill="#ffffff" d="
  M 114.51 260.19
  L 118.55 253.06
  A 0.35 0.35 0.0 0 1 118.85 252.88
  L 125.55 252.85
  A 0.35 0.35 0.0 0 1 125.85 253.39
  L 118.40 265.39
  A 0.35 0.35 0.0 0 0 118.40 265.75
  L 125.69 277.99
  A 0.35 0.35 0.0 0 1 125.39 278.52
  L 118.77 278.48
  A 0.35 0.35 0.0 0 1 118.46 278.30
  L 114.42 270.92
  A 0.35 0.35 0.0 0 0 113.81 270.92
  L 109.67 278.30
  A 0.35 0.35 0.0 0 1 109.37 278.48
  L 102.65 278.52
  A 0.35 0.35 0.0 0 1 102.35 277.98
  L 109.91 265.76
  A 0.35 0.35 0.0 0 0 109.92 265.40
  L 102.98 253.38
  A 0.35 0.35 0.0 0 1 103.29 252.85
  L 109.92 252.89
  A 0.35 0.35 0.0 0 1 110.23 253.08
  L 113.89 260.18
  A 0.35 0.35 0.0 0 0 114.51 260.19
  Z"
/>
<path fill="#ffffff" d="
  M 142.51 273.78
  L 134.94 273.78
  A 0.40 0.40 0.0 0 0 134.56 274.06
  L 133.22 278.23
  A 0.40 0.40 0.0 0 1 132.84 278.51
  L 127.03 278.47
  A 0.40 0.40 0.0 0 1 126.66 277.94
  L 135.71 253.15
  A 0.40 0.40 0.0 0 1 136.09 252.89
  L 141.53 252.86
  A 0.40 0.40 0.0 0 1 141.91 253.13
  L 150.75 277.97
  A 0.40 0.40 0.0 0 1 150.37 278.51
  L 144.57 278.49
  A 0.40 0.40 0.0 0 1 144.19 278.21
  L 142.89 274.06
  A 0.40 0.40 0.0 0 0 142.51 273.78
  Z
  M 136.41 267.79
  A 0.33 0.33 0.0 0 0 136.72 268.23
  L 140.82 268.24
  A 0.33 0.33 0.0 0 0 141.14 267.81
  L 139.11 261.53
  A 0.33 0.33 0.0 0 0 138.48 261.53
  L 136.41 267.79
  Z"
/>
<path fill="#ffffff" d="
  M 159.87 267.02
  L 159.88 278.12
  A 0.37 0.37 0.0 0 1 159.51 278.49
  L 154.01 278.50
  Q 153.52 278.50 153.52 278.01
  L 153.53 253.54
  Q 153.53 252.86 154.21 252.86
  L 157.75 252.89
  Q 158.32 252.90 158.64 253.36
  L 167.24 265.66
  A 0.36 0.36 0.0 0 0 167.82 265.66
  L 176.46 253.27
  A 0.95 0.92 -71.3 0 1 177.24 252.87
  L 180.95 252.89
  Q 181.51 252.89 181.51 253.45
  L 181.51 278.25
  Q 181.51 278.50 181.25 278.50
  L 175.46 278.49
  Q 175.11 278.49 175.11 278.14
  L 175.14 267.02
  Q 175.14 266.12 174.62 266.85
  L 169.18 274.50
  A 2.07 2.07 0.0 0 1 165.80 274.50
  L 160.38 266.85
  Q 159.87 266.14 159.87 267.02
  Z"
/>
<path fill="#ffffff" d="
  M 193.13 271.09
  L 193.13 278.30
  Q 193.13 278.49 192.94 278.49
  L 186.87 278.49
  Q 186.69 278.49 186.69 278.31
  L 186.71 253.48
  Q 186.71 252.84 187.35 252.85
  C 191.85 252.91 199.14 252.00 202.91 254.52
  C 206.79 257.12 207.46 263.06 205.01 266.74
  C 202.55 270.46 198.04 270.55 193.81 270.43
  Q 193.13 270.42 193.13 271.09
  Z
  M 193.10 259.25
  L 193.12 264.23
  A 0.46 0.46 0.0 0 0 193.59 264.68
  L 196.69 264.67
  A 3.10 2.74 -0.3 0 0 199.77 261.91
  L 199.77 261.49
  A 3.10 2.74 -0.3 0 0 196.65 258.77
  L 193.55 258.79
  A 0.46 0.46 0.0 0 0 193.10 259.25
  Z"
/>
<path fill="#ffffff" d="
  M 216.51 272.31
  L 228.29 272.31
  A 0.32 0.32 0.0 0 1 228.61 272.63
  L 228.63 278.18
  A 0.32 0.32 0.0 0 1 228.31 278.50
  L 210.01 278.50
  A 0.32 0.32 0.0 0 1 209.69 278.18
  L 209.71 253.20
  A 0.32 0.32 0.0 0 1 210.03 252.88
  L 215.87 252.88
  A 0.32 0.32 0.0 0 1 216.19 253.20
  L 216.19 271.99
  A 0.32 0.32 0.0 0 0 216.51 272.31
  Z"
/>
<path fill="#ffffff" d="
  M 238.00 268.97
  L 238.04 272.16
  A 0.34 0.34 0.0 0 0 238.38 272.50
  L 249.66 272.51
  A 0.34 0.34 0.0 0 1 250.00 272.85
  L 249.99 278.16
  A 0.34 0.34 0.0 0 1 249.65 278.50
  L 231.87 278.50
  A 0.34 0.34 0.0 0 1 231.53 278.16
  L 231.53 253.22
  A 0.34 0.34 0.0 0 1 231.87 252.88
  L 249.67 252.87
  A 0.34 0.34 0.0 0 1 250.01 253.21
  L 250.01 258.54
  A 0.34 0.34 0.0 0 1 249.67 258.88
  L 238.34 258.87
  A 0.34 0.34 0.0 0 0 238.00 259.21
  L 238.04 262.37
  A 0.34 0.34 0.0 0 0 238.38 262.71
  L 248.79 262.71
  A 0.34 0.34 0.0 0 1 249.13 263.05
  L 249.12 268.28
  A 0.34 0.34 0.0 0 1 248.78 268.62
  L 238.34 268.63
  A 0.34 0.34 0.0 0 0 238.00 268.97
  Z"
/>
</svg>
